<svg width="22" height="22" viewBox="0 0 22 22" fill="none" xmlns="http://www.w3.org/2000/svg">
  <path d="M17.882 14.227c-0.428 0.428-1.116 0.428-1.544 0L15.27 13.4c-0.428-0.428-0.428-1.116 0-1.544l1.068-1.067c0.428-0.428 1.116-0.428 1.544 0l0.069 0.069c0.428 0.428 0.428 1.116 0 1.544l-1.067 1.067zM19.86 15.27c-0.428-0.428-1.116-0.428-1.544 0l-1.067 1.067c-0.428 0.428-0.428 1.116 0 1.544l0.069 0.069c0.428 0.428 1.116 0.428 1.544 0l1.067-1.068c0.428-0.427 0.428-1.115 0-1.543l-0.069-0.069zM21.846 17.255c-0.428-0.428-1.116-0.428-1.544 0l-1.068 1.067c-0.428 0.428-0.428 1.116 0 1.544l0.069 0.068c0.428 0.428 1.116 0.428 1.544 0l1.067-1.067c0.428-0.428 0.428-1.116 0-1.544l-0.068-0.069zM12.775 10.185c-0.29-0.29-0.29-0.756 0-1.046l1.067-1.067c0.29-0.29 0.757-0.29 1.047 0l1.067 1.067c0.29 0.29 0.29 0.757 0 1.047l-1.067 1.067c-0.29 0.29-0.757 0.29-1.047 0l-1.067-1.068zM15.027 12.275c-0.29-0.29-0.29-0.756 0-1.046l1.067-1.067c0.29-0.29 0.757-0.29 1.047 0l1.067 1.067c0.29 0.29 0.29 0.757 0 1.047l-1.067 1.067c-0.29 0.29-0.757 0.29-1.047 0l-1.067-1.068zM17.256 14.726c-0.29-0.29-0.29-0.756 0-1.046l1.067-1.067c0.29-0.29 0.757-0.29 1.047 0l1.068 1.067c0.29 0.29 0.29 0.756 0 1.046l-1.068 1.067c-0.29 0.29-0.757 0.29-1.047 0l-1.067-1.067zM10.187 10.188c-0.428 0-0.774-0.346-0.774-0.774s0.346-0.774 0.774-0.774 0.774 0.346 0.774 0.774c0 0.428-0.346 0.774-0.774 0.774z" fill="#FF00838F"/>
  <path fill-rule="evenodd" clip-rule="evenodd" d="M12.426 2.574c-1.027 0-1.859 0.832-1.859 1.859s0.832 1.859 1.859 1.859c1.027 0 1.859-0.832 1.859-1.859s-0.832-1.859-1.859-1.859zM12.426 6.796c-2.72 0-4.926 2.206-4.926 4.926s2.206 4.926 4.926 4.926c2.72 0 4.926-2.206 4.926-4.926s-2.206-4.926-4.926-4.926zM12.426 0c-4.095 0-7.426 3.331-7.426 7.426s3.331 7.426 7.426 7.426c4.095 0 7.426-3.331 7.426-7.426s-3.331-7.426-7.426-7.426z" fill="#FF7643"/>
</svg>

