<svg width="22" height="22" viewBox="0 0 22 22" fill="none" xmlns="http://www.w3.org/2000/svg">
  <path fill-rule="evenodd" clip-rule="evenodd" d="M15.7676 1.07812C15.7676 0.78125 15.5491 0.5625 15.2522 0.5625H6.74777C6.45089 0.5625 6.23242 0.78125 6.23242 1.07812C6.23242 1.375 6.45089 1.59375 6.74777 1.59375H15.2522C15.5491 1.59375 15.7676 1.375 15.7676 1.07812ZM16.5 4.3125C17.328 4.3125 18 5.01562 18 5.875V12.8125C18 13.6719 17.328 14.375 16.5 14.375H5.5C4.672 14.375 4 13.6719 4 12.8125V5.875C4 5.01562 4.672 4.3125 5.5 4.3125H16.5ZM17.4164 16.3744C17.7044 16.073 17.8105 15.6562 17.712 15.2735C17.712 15.2735 17.0285 12.5209 15.7551 12.0721C15.2559 11.875 14.707 12.0002 14.2617 12.3125C13.8164 12.625 13.4427 13.0742 13.2461 13.5402C13.0723 13.9478 12.8151 14.2969 12.5 14.5625C12.8151 14.8281 13.0723 15.1772 13.2461 15.5848C13.4427 16.0508 13.8164 16.5 14.2617 16.8125C14.707 17.125 15.2559 17.2502 15.7551 17.0531C16.2282 16.8659 17.4164 16.3744 17.4164 16.3744ZM9 17.25H8V18.125H9V17.25ZM13 17.25H12V18.125H13V17.25ZM10.5 17.25H11.5V18.125H10.5V17.25ZM11.5 5.875C11.5 5.57812 11.2815 5.35938 10.9846 5.35938H7.01538C6.7185 5.35938 6.5 5.57812 6.5 5.875V12.8125C6.5 13.1094 6.7185 13.3281 7.01538 13.3281H10.9846C11.2815 13.3281 11.5 13.1094 11.5 12.8125V5.875Z" fill="#FF7643"/>
</svg>
